<mxfile host="app.diagrams.net" modified="2024-06-08T11:53:13.350Z" agent="Mozilla/5.0 (Windows NT 10.0; Win64; x64) AppleWebKit/537.36 (KHTML, like Gecko) Chrome/125.0.0.0 Safari/537.36" etag="gceiz4m9WNpJhepMwoEY" version="24.5.2" type="device">
  <diagram name="Seite-1" id="Is81h1dp9pcziW4mXdIV">
    <mxGraphModel dx="1373" dy="699" grid="1" gridSize="10" guides="1" tooltips="1" connect="1" arrows="1" fold="1" page="1" pageScale="1" pageWidth="1169" pageHeight="827" math="0" shadow="0">
      <root>
        <mxCell id="0" />
        <mxCell id="1" parent="0" />
        <mxCell id="8zJLbpTYx8zNXx7EzJYs-1" value="Main Programm" style="swimlane;whiteSpace=wrap;html=1;" vertex="1" parent="1">
          <mxGeometry x="90" y="30" width="200" height="200" as="geometry" />
        </mxCell>
        <mxCell id="8zJLbpTYx8zNXx7EzJYs-2" value="erzeugt App" style="whiteSpace=wrap;html=1;" vertex="1" parent="8zJLbpTYx8zNXx7EzJYs-1">
          <mxGeometry x="20" y="40" width="150" height="40" as="geometry" />
        </mxCell>
        <mxCell id="8zJLbpTYx8zNXx7EzJYs-28" value="verarbeite Events" style="rounded=0;whiteSpace=wrap;html=1;fontFamily=Helvetica;fontSize=11;fontColor=default;labelBackgroundColor=default;" vertex="1" parent="8zJLbpTYx8zNXx7EzJYs-1">
          <mxGeometry x="15" y="100" width="160" height="20" as="geometry" />
        </mxCell>
        <mxCell id="8zJLbpTYx8zNXx7EzJYs-35" value="beende App" style="rounded=0;whiteSpace=wrap;html=1;fontFamily=Helvetica;fontSize=11;fontColor=default;labelBackgroundColor=default;" vertex="1" parent="8zJLbpTYx8zNXx7EzJYs-1">
          <mxGeometry x="15" y="140" width="160" height="20" as="geometry" />
        </mxCell>
        <mxCell id="8zJLbpTYx8zNXx7EzJYs-4" value="Klasse App" style="swimlane;whiteSpace=wrap;html=1;" vertex="1" parent="1">
          <mxGeometry x="390" y="30" width="200" height="220" as="geometry" />
        </mxCell>
        <mxCell id="8zJLbpTYx8zNXx7EzJYs-39" value="Initialisiere Klasse App" style="swimlane;whiteSpace=wrap;html=1;fontFamily=Helvetica;fontSize=11;fontColor=default;labelBackgroundColor=default;" vertex="1" parent="8zJLbpTYx8zNXx7EzJYs-4">
          <mxGeometry x="15" y="30" width="175" height="160" as="geometry" />
        </mxCell>
        <mxCell id="8zJLbpTYx8zNXx7EzJYs-5" value="Initialisiert App" style="rounded=0;whiteSpace=wrap;html=1;" vertex="1" parent="8zJLbpTYx8zNXx7EzJYs-39">
          <mxGeometry x="10" y="35" width="150" height="20" as="geometry" />
        </mxCell>
        <mxCell id="8zJLbpTYx8zNXx7EzJYs-7" value="erstellt Datenbank Klasse" style="rounded=0;whiteSpace=wrap;html=1;" vertex="1" parent="8zJLbpTYx8zNXx7EzJYs-39">
          <mxGeometry x="10" y="60" width="150" height="20" as="geometry" />
        </mxCell>
        <mxCell id="8zJLbpTYx8zNXx7EzJYs-13" value="erstelle Fenster Klasse" style="rounded=0;whiteSpace=wrap;html=1;fontFamily=Helvetica;fontSize=11;fontColor=default;labelBackgroundColor=default;" vertex="1" parent="8zJLbpTYx8zNXx7EzJYs-39">
          <mxGeometry x="10" y="90" width="150" height="20" as="geometry" />
        </mxCell>
        <mxCell id="8zJLbpTYx8zNXx7EzJYs-27" value="zeige Fenster an" style="rounded=0;whiteSpace=wrap;html=1;fontFamily=Helvetica;fontSize=11;fontColor=default;labelBackgroundColor=default;" vertex="1" parent="8zJLbpTYx8zNXx7EzJYs-39">
          <mxGeometry x="10" y="120" width="150" height="20" as="geometry" />
        </mxCell>
        <mxCell id="8zJLbpTYx8zNXx7EzJYs-6" style="edgeStyle=orthogonalEdgeStyle;rounded=0;orthogonalLoop=1;jettySize=auto;html=1;" edge="1" parent="1" source="8zJLbpTYx8zNXx7EzJYs-2">
          <mxGeometry relative="1" as="geometry">
            <mxPoint x="410" y="90" as="targetPoint" />
          </mxGeometry>
        </mxCell>
        <mxCell id="8zJLbpTYx8zNXx7EzJYs-8" value="Klasse Datenbank" style="swimlane;whiteSpace=wrap;html=1;" vertex="1" parent="1">
          <mxGeometry x="680" y="30" width="200" height="200" as="geometry" />
        </mxCell>
        <mxCell id="8zJLbpTYx8zNXx7EzJYs-10" value="initialisiert Datenbank" style="rounded=0;whiteSpace=wrap;html=1;" vertex="1" parent="8zJLbpTYx8zNXx7EzJYs-8">
          <mxGeometry x="10" y="30" width="180" height="30" as="geometry" />
        </mxCell>
        <mxCell id="8zJLbpTYx8zNXx7EzJYs-11" style="rounded=0;orthogonalLoop=1;jettySize=auto;html=1;entryX=0;entryY=0.25;entryDx=0;entryDy=0;exitX=1;exitY=0;exitDx=0;exitDy=0;" edge="1" parent="1" source="8zJLbpTYx8zNXx7EzJYs-7" target="8zJLbpTYx8zNXx7EzJYs-10">
          <mxGeometry relative="1" as="geometry" />
        </mxCell>
        <mxCell id="8zJLbpTYx8zNXx7EzJYs-12" style="rounded=0;orthogonalLoop=1;jettySize=auto;html=1;exitX=0;exitY=0.75;exitDx=0;exitDy=0;entryX=1;entryY=1;entryDx=0;entryDy=0;" edge="1" parent="1" source="8zJLbpTYx8zNXx7EzJYs-10" target="8zJLbpTYx8zNXx7EzJYs-7">
          <mxGeometry relative="1" as="geometry" />
        </mxCell>
        <mxCell id="8zJLbpTYx8zNXx7EzJYs-14" value="abgeleitete Fenster Klasse" style="swimlane;whiteSpace=wrap;html=1;fontFamily=Helvetica;fontSize=11;fontColor=default;labelBackgroundColor=default;" vertex="1" parent="1">
          <mxGeometry x="680" y="260" width="210" height="480" as="geometry" />
        </mxCell>
        <mxCell id="8zJLbpTYx8zNXx7EzJYs-41" value="Events" style="swimlane;whiteSpace=wrap;html=1;fontFamily=Helvetica;fontSize=11;fontColor=default;labelBackgroundColor=default;" vertex="1" parent="8zJLbpTYx8zNXx7EzJYs-14">
          <mxGeometry x="10" y="280" width="180" height="130" as="geometry" />
        </mxCell>
        <mxCell id="8zJLbpTYx8zNXx7EzJYs-31" value="Cancel" style="rounded=0;whiteSpace=wrap;html=1;fontFamily=Helvetica;fontSize=11;fontColor=default;labelBackgroundColor=default;" vertex="1" parent="8zJLbpTYx8zNXx7EzJYs-41">
          <mxGeometry x="10" y="40" width="160" height="20" as="geometry" />
        </mxCell>
        <mxCell id="8zJLbpTYx8zNXx7EzJYs-34" value="SchlieÃŸe Fenster" style="rounded=0;whiteSpace=wrap;html=1;fontFamily=Helvetica;fontSize=11;fontColor=default;labelBackgroundColor=default;" vertex="1" parent="8zJLbpTYx8zNXx7EzJYs-41">
          <mxGeometry x="10" y="100" width="160" height="20" as="geometry" />
        </mxCell>
        <mxCell id="8zJLbpTYx8zNXx7EzJYs-30" value="Save" style="rounded=0;whiteSpace=wrap;html=1;fontFamily=Helvetica;fontSize=11;fontColor=default;labelBackgroundColor=default;" vertex="1" parent="8zJLbpTYx8zNXx7EzJYs-41">
          <mxGeometry x="10" y="70" width="160" height="20" as="geometry" />
        </mxCell>
        <mxCell id="8zJLbpTYx8zNXx7EzJYs-44" style="edgeStyle=none;rounded=0;orthogonalLoop=1;jettySize=auto;html=1;exitX=0.5;exitY=1;exitDx=0;exitDy=0;strokeColor=default;align=center;verticalAlign=middle;fontFamily=Helvetica;fontSize=11;fontColor=default;labelBackgroundColor=default;endArrow=classic;" edge="1" parent="8zJLbpTYx8zNXx7EzJYs-41" source="8zJLbpTYx8zNXx7EzJYs-34" target="8zJLbpTYx8zNXx7EzJYs-34">
          <mxGeometry relative="1" as="geometry" />
        </mxCell>
        <mxCell id="8zJLbpTYx8zNXx7EzJYs-45" value="init Fenster" style="swimlane;whiteSpace=wrap;html=1;fontFamily=Helvetica;fontSize=11;fontColor=default;labelBackgroundColor=default;startSize=23;" vertex="1" parent="8zJLbpTYx8zNXx7EzJYs-14">
          <mxGeometry x="10" y="40" width="190" height="200" as="geometry" />
        </mxCell>
        <mxCell id="8zJLbpTYx8zNXx7EzJYs-16" value="initialisiere Fenster Klasse" style="rounded=0;whiteSpace=wrap;html=1;fontFamily=Helvetica;fontSize=11;fontColor=default;labelBackgroundColor=default;" vertex="1" parent="8zJLbpTYx8zNXx7EzJYs-45">
          <mxGeometry x="10" y="40" width="170" height="20" as="geometry" />
        </mxCell>
        <mxCell id="8zJLbpTYx8zNXx7EzJYs-17" style="edgeStyle=none;rounded=0;orthogonalLoop=1;jettySize=auto;html=1;entryX=0;entryY=0.5;entryDx=0;entryDy=0;strokeColor=default;align=center;verticalAlign=middle;fontFamily=Helvetica;fontSize=11;fontColor=default;labelBackgroundColor=default;endArrow=classic;" edge="1" parent="8zJLbpTYx8zNXx7EzJYs-45" source="8zJLbpTYx8zNXx7EzJYs-16" target="8zJLbpTYx8zNXx7EzJYs-16">
          <mxGeometry relative="1" as="geometry" />
        </mxCell>
        <mxCell id="8zJLbpTYx8zNXx7EzJYs-18" value="starte Orginal Fenster-Initialisierung" style="rounded=0;whiteSpace=wrap;html=1;fontFamily=Helvetica;fontSize=11;fontColor=default;labelBackgroundColor=default;" vertex="1" parent="8zJLbpTYx8zNXx7EzJYs-45">
          <mxGeometry x="10" y="70" width="170" height="30" as="geometry" />
        </mxCell>
        <mxCell id="8zJLbpTYx8zNXx7EzJYs-24" value="speichere Datenbankverbindung" style="rounded=0;whiteSpace=wrap;html=1;fontFamily=Helvetica;fontSize=11;fontColor=default;labelBackgroundColor=default;" vertex="1" parent="8zJLbpTYx8zNXx7EzJYs-45">
          <mxGeometry x="10" y="110" width="170" height="20" as="geometry" />
        </mxCell>
        <mxCell id="8zJLbpTYx8zNXx7EzJYs-15" style="edgeStyle=none;rounded=0;orthogonalLoop=1;jettySize=auto;html=1;entryX=0;entryY=0.5;entryDx=0;entryDy=0;strokeColor=default;align=center;verticalAlign=middle;fontFamily=Helvetica;fontSize=11;fontColor=default;labelBackgroundColor=default;endArrow=classic;exitX=1;exitY=0;exitDx=0;exitDy=0;" edge="1" parent="1" source="8zJLbpTYx8zNXx7EzJYs-13" target="8zJLbpTYx8zNXx7EzJYs-16">
          <mxGeometry relative="1" as="geometry" />
        </mxCell>
        <mxCell id="8zJLbpTYx8zNXx7EzJYs-19" value="Orginal Fenster Klasse" style="swimlane;whiteSpace=wrap;html=1;fontFamily=Helvetica;fontSize=11;fontColor=default;labelBackgroundColor=default;" vertex="1" parent="1">
          <mxGeometry x="960" y="260" width="200" height="200" as="geometry" />
        </mxCell>
        <mxCell id="8zJLbpTYx8zNXx7EzJYs-20" value="initialisiere Orginal Fenster" style="rounded=0;whiteSpace=wrap;html=1;fontFamily=Helvetica;fontSize=11;fontColor=default;labelBackgroundColor=default;" vertex="1" parent="8zJLbpTYx8zNXx7EzJYs-19">
          <mxGeometry x="10" y="30" width="180" height="20" as="geometry" />
        </mxCell>
        <mxCell id="8zJLbpTYx8zNXx7EzJYs-22" style="edgeStyle=none;rounded=0;orthogonalLoop=1;jettySize=auto;html=1;entryX=0;entryY=0;entryDx=0;entryDy=0;strokeColor=default;align=center;verticalAlign=middle;fontFamily=Helvetica;fontSize=11;fontColor=default;labelBackgroundColor=default;endArrow=classic;exitX=1;exitY=0;exitDx=0;exitDy=0;" edge="1" parent="1" source="8zJLbpTYx8zNXx7EzJYs-18" target="8zJLbpTYx8zNXx7EzJYs-20">
          <mxGeometry relative="1" as="geometry" />
        </mxCell>
        <mxCell id="8zJLbpTYx8zNXx7EzJYs-23" style="edgeStyle=none;rounded=0;orthogonalLoop=1;jettySize=auto;html=1;entryX=1;entryY=1;entryDx=0;entryDy=0;strokeColor=default;align=center;verticalAlign=middle;fontFamily=Helvetica;fontSize=11;fontColor=default;labelBackgroundColor=default;endArrow=classic;exitX=0;exitY=1;exitDx=0;exitDy=0;exitPerimeter=0;" edge="1" parent="1" source="8zJLbpTYx8zNXx7EzJYs-20" target="8zJLbpTYx8zNXx7EzJYs-18">
          <mxGeometry relative="1" as="geometry" />
        </mxCell>
        <mxCell id="8zJLbpTYx8zNXx7EzJYs-25" style="edgeStyle=none;rounded=0;orthogonalLoop=1;jettySize=auto;html=1;entryX=1;entryY=1;entryDx=0;entryDy=0;strokeColor=default;align=center;verticalAlign=middle;fontFamily=Helvetica;fontSize=11;fontColor=default;labelBackgroundColor=default;endArrow=classic;exitX=0;exitY=1;exitDx=0;exitDy=0;" edge="1" parent="1" source="8zJLbpTYx8zNXx7EzJYs-24" target="8zJLbpTYx8zNXx7EzJYs-13">
          <mxGeometry relative="1" as="geometry" />
        </mxCell>
        <mxCell id="8zJLbpTYx8zNXx7EzJYs-32" style="edgeStyle=none;rounded=0;orthogonalLoop=1;jettySize=auto;html=1;entryX=0;entryY=0;entryDx=0;entryDy=0;strokeColor=default;align=center;verticalAlign=middle;fontFamily=Helvetica;fontSize=11;fontColor=default;labelBackgroundColor=default;endArrow=classic;exitX=1;exitY=0;exitDx=0;exitDy=0;" edge="1" parent="1" source="8zJLbpTYx8zNXx7EzJYs-28">
          <mxGeometry relative="1" as="geometry">
            <mxPoint x="690" y="540" as="targetPoint" />
            <Array as="points">
              <mxPoint x="370" y="414" />
            </Array>
          </mxGeometry>
        </mxCell>
        <mxCell id="8zJLbpTYx8zNXx7EzJYs-33" style="edgeStyle=none;rounded=0;orthogonalLoop=1;jettySize=auto;html=1;entryX=1;entryY=1;entryDx=0;entryDy=0;strokeColor=default;align=center;verticalAlign=middle;fontFamily=Helvetica;fontSize=11;fontColor=default;labelBackgroundColor=default;endArrow=classic;exitX=0;exitY=0.25;exitDx=0;exitDy=0;" edge="1" parent="1" source="8zJLbpTYx8zNXx7EzJYs-34" target="8zJLbpTYx8zNXx7EzJYs-28">
          <mxGeometry relative="1" as="geometry">
            <mxPoint x="690.0000000000005" y="636" as="sourcePoint" />
            <Array as="points">
              <mxPoint x="390" y="510" />
            </Array>
          </mxGeometry>
        </mxCell>
        <mxCell id="8zJLbpTYx8zNXx7EzJYs-38" style="edgeStyle=none;rounded=0;orthogonalLoop=1;jettySize=auto;html=1;entryX=1;entryY=1;entryDx=0;entryDy=0;strokeColor=default;align=center;verticalAlign=middle;fontFamily=Helvetica;fontSize=11;fontColor=default;labelBackgroundColor=default;endArrow=classic;" edge="1" parent="1" target="8zJLbpTYx8zNXx7EzJYs-2">
          <mxGeometry relative="1" as="geometry">
            <mxPoint x="410" y="200" as="sourcePoint" />
          </mxGeometry>
        </mxCell>
        <mxCell id="8zJLbpTYx8zNXx7EzJYs-46" value="&lt;font style=&quot;font-size: 27px;&quot;&gt;WXBuilder&lt;/font&gt;" style="text;html=1;align=center;verticalAlign=middle;whiteSpace=wrap;rounded=0;fontFamily=Helvetica;fontSize=11;fontColor=default;labelBackgroundColor=default;" vertex="1" parent="1">
          <mxGeometry x="980" y="70" width="170" height="30" as="geometry" />
        </mxCell>
        <mxCell id="8zJLbpTYx8zNXx7EzJYs-48" value="" style="shape=flexArrow;endArrow=classic;html=1;rounded=0;strokeColor=default;align=center;verticalAlign=middle;fontFamily=Helvetica;fontSize=11;fontColor=default;labelBackgroundColor=default;" edge="1" parent="1">
          <mxGeometry width="50" height="50" relative="1" as="geometry">
            <mxPoint x="1060" y="110" as="sourcePoint" />
            <mxPoint x="1060" y="240" as="targetPoint" />
          </mxGeometry>
        </mxCell>
      </root>
    </mxGraphModel>
  </diagram>
</mxfile>
